# xmcd
#
# Track frame offsets:
#	150
#	31306
#	48570
#	70340
#	100199
#
# Disc length: 1575 seconds
#
# Revision: 0
# Processed by: cddbd v1.5.2PL0 Copyright (c) Steve Scherf et al.
# Submitted via: EasyCDDAExtractor 12.0.1.1
#
DISCID=3e062505
DTITLE=Chris Rea - Espresso Logic
DYEAR=1994
DGENRE=Blues
TTITLE0=Espresso Logic
TTITLE1=Soup Of The Day
TTITLE2=Johnny Needs A Fast Car
TTITLE3=Between The Devil And The Deep Blue Sea
TTITLE4=Julia
EXTD=
EXTT0=
EXTT1=
EXTT2=
EXTT3=
EXTT4=
PLAYORDER=
